<?xml version="1.0" standalone="no"?>
<!DOCTYPE svg PUBLIC "-//W3C//DTD SVG 20010904//EN"
 "http://www.w3.org/TR/2001/REC-SVG-20010904/DTD/svg10.dtd">
<svg version="1.0" xmlns="http://www.w3.org/2000/svg"
 width="400.000000pt" height="400.000000pt" viewBox="0 0 400.000000 400.000000"
 preserveAspectRatio="xMidYMid meet">
<metadata>
Created by potrace 1.14, written by Peter Selinger 2001-2017
</metadata>
<g transform="translate(0.000000,400.000000) scale(0.100000,-0.100000)"
fill="#000000" stroke="none">
<path d="M1057 3213 c-4 -3 -32 -7 -63 -7 l-56 -1 -1 -207 c-1 -113 1 -204 6
-201 4 2 7 1 7 -4 0 -4 16 -8 35 -8 19 0 35 5 35 10 0 6 4 3 9 -5 6 -8 7 -19
3 -25 -3 -5 1 -4 10 2 8 7 18 10 22 6 4 -4 4 -1 1 8 -5 12 4 14 55 9 38 -4 60
-2 60 5 0 5 4 4 9 -4 7 -11 9 -11 14 0 4 11 6 11 6 1 1 -7 5 -11 9 -8 13 8 6
-42 -8 -59 -11 -14 -11 -16 0 -13 11 2 14 -8 13 -37 -1 -22 -2 -42 -2 -44 -1
-2 -8 2 -16 9 -8 7 -15 8 -15 3 0 -11 -36 -11 -46 0 -4 3 -14 2 -23 -2 -20
-11 -32 -11 -52 -1 -8 5 -21 5 -29 0 -9 -5 -19 -5 -27 2 -8 6 -13 6 -13 1 0
-5 -7 -10 -15 -10 -8 0 -15 5 -15 10 0 5 -6 4 -13 -2 -8 -6 -16 -9 -18 -7 -2
3 -3 -60 -3 -138 l2 -143 -37 0 c-20 0 -39 5 -43 11 -6 8 -8 8 -8 0 0 -7 -17
-12 -40 -12 -29 -1 -38 3 -33 11 5 9 3 9 -8 1 -8 -6 -31 -12 -51 -12 -71 -1
-70 0 -64 -32 3 -21 -1 -33 -12 -41 -13 -8 -13 -9 -2 -6 20 6 19 -34 -1 -60
-12 -16 -12 -17 1 -6 15 12 16 8 11 -122 -1 -19 -8 -20 -141 -19 -156 0 -143
8 -141 -79 1 -37 -2 -47 -11 -41 -10 6 -10 4 0 -8 14 -18 13 -49 -3 -60 -6 -5
-6 -8 2 -8 6 0 11 -15 11 -35 0 -24 -4 -33 -11 -28 -9 5 -9 3 -1 -8 6 -8 12
-36 12 -64 0 -27 -6 -56 -12 -64 -8 -11 -8 -13 1 -8 15 10 14 -95 -1 -105 -8
-5 -7 -8 1 -8 6 0 11 -15 11 -35 0 -24 -4 -33 -11 -28 -9 5 -9 3 -1 -8 8 -9
12 -72 12 -189 0 -228 0 -229 12 -210 8 12 10 12 11 -5 l0 -20 9 20 c5 11 9
14 9 6 1 -10 4 -11 14 -2 10 8 17 7 25 -1 9 -9 12 -9 12 1 0 7 5 9 10 6 6 -4
8 -12 4 -18 -3 -7 0 -5 8 3 17 19 108 22 108 3 0 -7 5 -13 11 -13 5 0 8 4 5 9
-3 5 1 11 9 15 9 3 15 0 15 -9 0 -7 5 -17 12 -21 7 -4 8 -3 4 4 -12 19 3 35
20 21 11 -9 14 -8 15 2 0 8 4 5 9 -6 6 -14 9 -15 9 -5 1 11 12 15 39 15 20 0
37 3 37 6 0 3 7 14 15 24 8 11 10 16 4 12 -13 -8 -13 311 0 332 6 9 5 12 -1 8
-6 -4 -10 27 -10 86 l1 93 33 2 c19 2 33 -2 33 -8 0 -12 43 -3 48 10 2 4 11 6
21 3 17 -4 18 -22 17 -269 -1 -146 2 -274 6 -285 5 -13 15 -18 30 -15 13 2 29
-1 36 -6 8 -7 12 -7 12 1 0 7 5 9 10 6 6 -4 8 -12 4 -18 -3 -7 0 -5 8 3 17 19
108 22 108 3 0 -7 5 -13 11 -13 5 0 8 4 5 9 -3 5 1 11 9 15 9 3 15 0 15 -9 0
-8 4 -15 10 -15 5 0 7 8 3 18 -5 13 -3 15 7 5 18 -17 19 -55 1 -76 -13 -15
-13 -18 -1 -15 12 2 14 -15 14 -99 -1 -84 2 -100 14 -96 8 3 18 0 23 -8 5 -9
9 -9 9 -2 0 17 118 11 132 -7 8 -13 9 -12 5 2 -5 13 0 16 20 14 13 -2 28 -8
33 -15 5 -10 9 -9 13 3 8 21 33 20 47 -2 9 -14 11 -14 7 -1 -5 14 3 16 49 15
36 -1 59 -7 65 -16 9 -13 10 -12 6 2 -5 13 0 16 20 14 13 -2 28 -8 33 -15 5
-10 9 -9 13 3 8 21 33 20 47 -1 9 -15 11 -15 7 -2 -5 14 3 16 49 15 36 -1 59
-7 65 -16 9 -12 10 -12 5 3 -3 11 -1 17 7 16 31 -4 34 2 31 71 -2 49 1 68 8
64 7 -5 8 -2 2 7 -13 22 -14 100 0 92 6 -4 6 -1 -1 8 -14 17 -13 75 1 98 6 9
5 12 -2 7 -7 -4 -10 6 -9 31 l2 38 -180 -1 c-120 -1 -182 3 -187 10 -5 8 -8 7
-8 -1 0 -7 -9 -13 -20 -13 -11 0 -20 6 -20 13 0 8 -2 9 -8 1 -4 -7 -36 -11
-78 -11 l-71 0 -2 45 c0 24 4 52 11 60 10 13 10 14 1 8 -9 -5 -13 -1 -13 12 0
27 11 34 28 19 13 -9 14 -9 8 1 -4 7 -2 12 8 12 8 0 17 -6 19 -12 4 -10 6 -10
6 0 1 16 38 16 44 0 4 -10 6 -10 6 0 1 6 6 12 12 12 5 0 7 -6 3 -12 -6 -10 -4
-10 7 -2 18 13 59 16 59 3 0 -5 5 -9 11 -9 5 0 8 4 5 8 -3 5 11 9 30 10 22 1
32 -2 28 -9 -3 -6 4 -5 15 3 18 11 23 11 31 -2 6 -10 10 -11 10 -2 0 6 5 12
11 12 5 0 7 -5 3 -12 -4 -6 -3 -8 4 -4 5 3 12 3 15 -1 2 -5 2 -2 1 5 -2 6 1
12 6 12 6 0 10 -6 10 -12 0 -9 3 -9 8 -3 8 12 55 18 48 6 -3 -4 1 -8 9 -8 8 0
12 4 9 9 -3 4 2 8 11 8 9 0 14 -4 11 -8 -3 -5 1 -9 9 -9 8 0 12 4 9 9 -3 4 2
8 11 8 9 0 13 -5 10 -11 -4 -6 2 -5 14 3 18 11 23 10 36 -7 12 -16 14 -17 9
-2 -7 19 12 24 19 5 4 -10 6 -10 6 0 1 6 6 12 12 12 5 0 7 -6 3 -12 -6 -10 -4
-10 7 -2 18 13 59 16 59 3 0 -5 5 -9 11 -9 5 0 8 4 5 8 -3 5 11 9 30 10 22 1
32 -2 28 -9 -3 -6 4 -5 15 3 18 11 23 11 31 -2 6 -10 10 -11 10 -2 0 6 5 12
11 12 5 0 7 -5 3 -12 -4 -6 -3 -8 4 -4 5 3 12 3 15 -1 2 -5 2 -2 1 5 -2 6 1
12 6 12 6 0 10 -6 10 -12 0 -9 3 -9 8 -3 8 12 55 18 48 6 -3 -4 1 -8 9 -8 8 0
12 4 9 9 -3 4 2 8 11 8 10 0 13 -5 9 -12 -5 -9 -2 -9 9 1 11 9 17 10 17 2 0
-6 5 -11 11 -11 5 0 7 5 4 10 -3 6 0 10 9 10 8 0 17 -6 19 -12 4 -10 6 -10 6
0 1 16 38 16 44 0 4 -10 6 -10 6 0 1 6 6 12 12 12 5 0 7 -6 3 -12 -6 -10 -4
-10 7 -2 18 13 59 16 59 3 0 -5 5 -9 11 -9 5 0 8 4 5 9 -8 13 48 10 56 -3 6
-8 8 -7 8 2 0 6 5 12 11 12 5 0 7 -6 3 -12 -6 -10 -4 -10 7 0 18 17 32 15 25
-4 -3 -8 -2 -13 3 -10 4 3 8 -12 8 -34 0 -26 -4 -37 -11 -33 -6 4 -5 -1 3 -11
13 -15 13 -19 0 -27 -10 -6 -11 -9 -1 -9 7 0 11 -4 8 -9 -8 -13 -119 -9 -128
4 -5 6 -8 6 -8 -2 0 -7 -9 -13 -20 -13 -11 0 -20 6 -20 13 0 8 -2 9 -8 1 -5
-8 -65 -11 -195 -10 l-187 1 0 -28 c0 -19 -4 -26 -12 -21 -8 5 -8 3 -2 -7 5
-8 9 -90 10 -184 0 -93 3 -170 6 -170 3 0 16 -9 29 -20 16 -13 19 -14 11 -3
-12 15 -11 16 10 14 13 -1 30 -6 37 -11 9 -5 12 -4 8 1 -10 17 66 14 93 -3 23
-15 24 -15 12 0 -12 14 -10 15 10 13 13 -1 30 -6 37 -11 9 -5 12 -4 8 1 -10
17 66 14 93 -3 23 -15 24 -15 12 0 -12 14 -10 15 10 13 13 -1 30 -6 37 -11 9
-5 12 -4 8 1 -10 17 66 14 93 -3 23 -15 24 -15 12 0 -12 14 -10 15 10 13 13
-1 30 -6 37 -11 9 -5 12 -4 8 1 -3 6 10 11 30 11 25 1 32 -2 22 -8 -9 -6 -10
-9 -2 -9 6 0 15 5 18 10 3 5 14 10 24 10 25 0 47 26 29 34 -10 5 -10 7 0 12 6
3 12 10 12 15 0 6 -4 7 -10 4 -14 -9 -12 8 3 24 10 11 10 13 0 7 -16 -9 -16
-1 -2 26 6 11 7 18 1 15 -11 -8 -10 62 1 81 5 7 3 12 -4 12 -8 0 -7 5 2 17 8
9 9 14 2 10 -7 -5 -9 0 -6 13 5 19 6 20 20 3 8 -10 12 -13 9 -7 -3 7 1 14 9
18 9 3 15 0 15 -9 0 -8 5 -15 11 -15 5 0 8 4 5 9 -3 5 1 11 9 15 10 3 15 -1
15 -12 0 -14 2 -15 10 -2 13 20 63 22 55 2 -4 -12 -1 -12 15 3 13 12 20 14 20
5 0 -9 3 -10 13 -1 10 8 17 7 25 -1 8 -8 12 -8 12 -1 0 6 10 10 22 9 l22 -1
-1 265 c-1 184 3 269 11 279 8 12 8 13 -1 7 -7 -4 -13 -2 -13 3 0 7 30 11 78
11 64 0 79 -3 79 -15 0 -10 -6 -14 -16 -10 -14 4 -14 4 0 -8 13 -9 16 -29 15
-92 -1 -44 -5 -86 -10 -94 -7 -10 -5 -12 3 -6 15 9 11 -36 -4 -47 -6 -5 -6 -8
1 -8 8 0 11 -46 9 -151 -1 -82 2 -152 7 -155 4 -3 5 2 2 10 -7 17 10 16 46 -4
23 -12 24 -12 11 3 -8 10 -9 17 -3 17 6 0 16 -8 21 -17 9 -15 10 -15 11 -2 0
23 69 18 88 -7 13 -18 14 -18 7 4 l-7 24 29 -18 c25 -17 27 -17 14 -1 -8 10
-9 17 -3 17 6 0 16 -8 21 -17 8 -15 10 -15 11 -3 0 12 11 15 43 15 23 -1 47
-4 54 -8 6 -4 13 -2 15 4 3 8 10 6 21 -5 15 -16 17 -16 17 -1 0 10 5 13 12 9
7 -4 8 -3 4 4 -4 7 -7 103 -7 214 0 153 3 203 13 210 11 6 11 8 0 8 -10 0 -13
33 -13 143 0 197 0 200 14 209 9 6 9 8 0 8 -10 0 -13 25 -13 93 l0 93 -117 1
c-65 0 -129 1 -143 2 l-26 1 2 111 c2 81 6 114 16 121 9 7 8 8 -6 4 -15 -5
-17 -2 -12 17 4 16 -1 26 -15 36 -12 7 -18 8 -15 3 8 -14 -147 -11 -156 3 -5
7 -8 7 -8 -1 0 -6 -20 -12 -45 -12 l-45 -2 1 112 c2 172 2 177 -18 173 -10 -1
-24 2 -30 8 -7 5 -13 6 -13 1 0 -8 -108 -11 -135 -4 -11 3 -13 3 -48 -4 -35
-6 -52 15 -37 45 8 14 8 19 1 15 -6 -4 -11 -3 -11 3 0 5 5 13 10 16 7 5 8 11
1 19 -6 7 -6 18 -1 25 4 8 6 19 4 26 -3 8 5 10 25 7 17 -2 29 -7 26 -11 -2 -4
2 -8 9 -8 9 0 12 7 9 16 -5 12 -3 13 7 4 8 -7 22 -8 41 -3 22 7 29 5 29 -6 0
-18 14 -18 30 1 9 11 16 12 25 5 9 -8 15 -7 18 2 4 8 6 7 6 -4 1 -10 5 -18 11
-18 5 0 7 6 4 14 -4 11 0 13 15 9 14 -3 21 0 22 8 0 8 1 101 1 208 0 149 -3
195 -13 202 -7 4 -17 5 -21 2 -16 -9 -117 -10 -111 0 3 5 -2 5 -13 0 -21 -10
-115 -10 -132 1 -6 3 -13 3 -16 -2 -5 -9 -70 -7 -85 2 -4 3 -15 -4 -24 -15 -9
-10 -13 -19 -9 -19 4 0 8 -9 9 -20 1 -11 -4 -20 -10 -20 -7 0 -6 -4 3 -10 12
-8 13 -11 1 -19 -11 -7 -11 -9 0 -14 12 -4 11 -7 -1 -16 -8 -6 -10 -11 -4 -11
6 0 11 -13 11 -30 0 -18 -4 -27 -11 -23 -6 4 -5 -1 3 -11 12 -14 12 -19 2 -26
-11 -6 -11 -9 0 -13 12 -5 11 -7 -1 -16 -8 -5 -18 -7 -24 -4 -5 3 -6 1 -2 -5
4 -6 13 -9 21 -5 8 3 15 1 15 -5 0 -5 -16 -12 -35 -14 -19 -2 -35 -1 -35 2 0
9 -53 6 -68 -4 -7 -4 -12 -4 -12 1 0 4 -31 8 -70 7 -60 0 -74 -4 -69 -16 6
-17 2 -78 -4 -78 -5 0 -4 -6 2 -14 9 -11 9 -15 -1 -19 -7 -3 -8 -6 -2 -6 11
-1 10 -63 -1 -81 -3 -6 -1 -10 6 -10 7 0 4 -7 -7 -16 -10 -8 -14 -13 -7 -10
16 8 24 -7 13 -24 -9 -15 -70 -22 -70 -7 0 4 -5 5 -12 1 -18 -11 -158 -12
-158 -1 0 6 -5 6 -12 1 -16 -11 -39 -11 -55 -1 -7 5 -13 5 -13 0 0 -7 -140
-10 -165 -3 -5 1 -12 1 -15 0 -18 -7 -50 -5 -50 4 0 6 -4 6 -12 -2 -7 -7 -17
-8 -30 -1 -11 6 -18 6 -18 0 0 -10 -25 -9 -36 2 -4 4 -13 2 -21 -4 -10 -9 -17
-8 -30 2 -15 12 -16 12 -8 -1 7 -13 6 -13 -7 -2 -17 13 -18 28 -5 49 4 6 3 15
-3 18 -8 5 -7 11 1 21 9 11 9 14 -1 14 -10 0 -10 3 -1 14 8 9 8 16 2 20 -7 4
-7 15 -1 31 6 16 6 27 -1 31 -8 4 -7 9 2 15 8 5 10 9 4 9 -5 0 -11 12 -11 26
-1 14 -4 27 -7 30 -9 10 -62 10 -74 1 -7 -5 -13 -6 -13 -1 0 5 -43 8 -95 7
l-96 -1 2 132 c1 73 -1 138 -5 144 -3 6 -14 11 -24 11 -33 1 -57 1 -92 -2 -19
-1 -43 1 -52 5 -9 5 -19 4 -22 0 -5 -9 -70 -7 -85 2 -4 3 -11 3 -14 -1z"/>
<path d="M1335 780 c3 -5 8 -10 11 -10 2 0 4 5 4 10 0 6 -5 10 -11 10 -5 0 -7
-4 -4 -10z"/>
<path d="M1575 780 c3 -5 8 -10 11 -10 2 0 4 5 4 10 0 6 -5 10 -11 10 -5 0 -7
-4 -4 -10z"/>
<path d="M1815 780 c3 -5 8 -10 11 -10 2 0 4 5 4 10 0 6 -5 10 -11 10 -5 0 -7
-4 -4 -10z"/>
</g>
</svg>
